<?xml version="1.0" encoding="utf-8"?>
<!-- Generator: Adobe Illustrator 24.1.2, SVG Export Plug-In . SVG Version: 6.00 Build 0)  -->
<svg version="1.1" id="work" xmlns="http://www.w3.org/2000/svg" xmlns:xlink="http://www.w3.org/1999/xlink" x="0px" y="0px"
	 viewBox="0 0 2500 2500" style="enable-background:new 0 0 2500 2500;" xml:space="preserve">
<style type="text/css">
	.st0{fill-rule:evenodd;clip-rule:evenodd;fill:#FEA7A8;}
	.st1{fill:none;stroke:#09072B;stroke-width:2;}
	.st2{fill-rule:evenodd;clip-rule:evenodd;fill:#261A5E;}
	.st3{fill:none;stroke:#FFFFFF;stroke-width:2;}
	.st4{fill-rule:evenodd;clip-rule:evenodd;fill:#0F0B47;}
	.st5{opacity:0.3;fill:none;stroke:#FFFFFF;stroke-width:2;enable-background:new    ;}
	.st6{fill-rule:evenodd;clip-rule:evenodd;fill:#3D9BEF;}
	.st7{opacity:0.1;fill-rule:evenodd;clip-rule:evenodd;fill:#0F0B47;enable-background:new    ;}
	.st8{fill-rule:evenodd;clip-rule:evenodd;fill:#E19394;}
	.st9{fill-rule:evenodd;clip-rule:evenodd;fill:#372A7F;}
	.st10{fill-rule:evenodd;clip-rule:evenodd;fill:#54479C;}
	.st11{fill:none;stroke:#0F0B47;stroke-width:2;}
	.st12{fill:none;stroke:#372A7F;stroke-width:2;}
	.st13{fill-rule:evenodd;clip-rule:evenodd;fill:#FFFFFF;}
	.st14{fill:#FFD884;}
	.st15{fill:#FFBF41;}
	.st16{fill:#58B8C0;}
	.st17{fill:#EBD9EC;}
	.st18{fill-rule:evenodd;clip-rule:evenodd;fill:#B3DBC9;}
	.st19{fill-rule:evenodd;clip-rule:evenodd;fill:#BCE6D3;}
	.st20{fill-rule:evenodd;clip-rule:evenodd;fill:#F69800;}
	.st21{opacity:0.5;fill:none;stroke:#FFFFFF;stroke-width:2;enable-background:new    ;}
	.st22{opacity:0.2;fill-rule:evenodd;clip-rule:evenodd;fill:#261A5E;enable-background:new    ;}
	.st23{fill-rule:evenodd;clip-rule:evenodd;fill:#003E8C;}
	.st24{fill-rule:evenodd;clip-rule:evenodd;fill:#08234A;}
	.st25{fill-rule:evenodd;clip-rule:evenodd;fill:#FFFCF8;}
	.st26{fill-rule:evenodd;clip-rule:evenodd;fill:#DBD8FF;}
	.st27{fill-rule:evenodd;clip-rule:evenodd;fill:#C2C0E7;}
	.st28{fill-rule:evenodd;clip-rule:evenodd;fill:#3F38A2;}
	.st29{fill-rule:evenodd;clip-rule:evenodd;fill:#363082;}
	.st30{fill:none;stroke:#FFFFFF;stroke-width:2;stroke-linecap:round;}
	.st31{fill:none;stroke:#DBD8FF;stroke-width:2;stroke-linecap:round;}
	.st32{fill-rule:evenodd;clip-rule:evenodd;fill:#003E8C;stroke:#0F0B47;stroke-width:2;}
	.st33{fill-rule:evenodd;clip-rule:evenodd;fill:#4B55F3;}
	.st34{fill-rule:evenodd;clip-rule:evenodd;fill:#181364;}
	.st35{fill-rule:evenodd;clip-rule:evenodd;fill:#06041A;}
	.st36{opacity:0.6;fill:none;stroke:#FFFFFF;stroke-width:2;enable-background:new    ;}
	.st37{fill-rule:evenodd;clip-rule:evenodd;fill:#FFD422;}
	.st38{fill-rule:evenodd;clip-rule:evenodd;fill:#FFFFFF;stroke:#0F0B47;stroke-width:2;}
	.st39{fill-rule:evenodd;clip-rule:evenodd;fill:#FF0021;}
	.st40{fill:none;stroke:#0F0B47;stroke-width:2;stroke-linecap:round;}
	.st41{fill-rule:evenodd;clip-rule:evenodd;fill:#FEA7A8;stroke:#0F0B47;stroke-width:2;}
	.st42{fill-rule:evenodd;clip-rule:evenodd;fill:#EA0422;}
	.st43{fill-rule:evenodd;clip-rule:evenodd;fill:#0C0936;}
	.st44{fill-rule:evenodd;clip-rule:evenodd;fill:#F3A3A4;}
	.st45{fill-rule:evenodd;clip-rule:evenodd;fill:#0F0B47;stroke:#FFFFFF;stroke-width:2;}
	.st46{fill-rule:evenodd;clip-rule:evenodd;fill:#F7A4A5;}
	.st47{opacity:0.4;fill:none;stroke:#FFFFFF;stroke-width:2;enable-background:new    ;}
	.st48{fill-rule:evenodd;clip-rule:evenodd;fill:#0E8B80;}
	.st49{fill-rule:evenodd;clip-rule:evenodd;fill:#BF4A24;}
	.st50{fill:none;stroke:#FFFCF8;stroke-width:2;}
	.st51{fill:none;stroke:#BF4A24;stroke-width:2;}
	.st52{fill-rule:evenodd;clip-rule:evenodd;fill:#FF77A5;}
	.st53{fill-rule:evenodd;clip-rule:evenodd;fill:#FFC84B;}
	.st54{fill-rule:evenodd;clip-rule:evenodd;fill:#ECB947;}
	.st55{fill-rule:evenodd;clip-rule:evenodd;fill:#0C8076;}
	.st56{fill-rule:evenodd;clip-rule:evenodd;fill:#F9F9F9;}
	.st57{fill:none;stroke:#F9F9F9;stroke-width:2;}
	.st58{fill-rule:evenodd;clip-rule:evenodd;fill:#FF622D;}
	.st59{fill-rule:evenodd;clip-rule:evenodd;fill:#DB4F20;}
	.st60{fill-rule:evenodd;clip-rule:evenodd;fill:#006D85;}
	.st61{fill-rule:evenodd;clip-rule:evenodd;fill:#0094B4;}
	.st62{fill-rule:evenodd;clip-rule:evenodd;fill:#733014;}
	.st63{fill:none;stroke:#733014;stroke-width:2;}
	.st64{opacity:0.1;fill-rule:evenodd;clip-rule:evenodd;enable-background:new    ;}
	.st65{fill-rule:evenodd;clip-rule:evenodd;}
	.st66{fill:none;stroke:#000000;stroke-width:2;}
	.st67{fill-rule:evenodd;clip-rule:evenodd;fill:#4267FF;}
	.st68{fill-rule:evenodd;clip-rule:evenodd;fill:#E19495;}
	.st69{fill-rule:evenodd;clip-rule:evenodd;fill:#202746;}
	.st70{fill-rule:evenodd;clip-rule:evenodd;fill:#2945BB;}
	.st71{fill-rule:evenodd;clip-rule:evenodd;fill:#774033;}
	.st72{fill:none;stroke:#774033;stroke-width:2;}
	.st73{fill-rule:evenodd;clip-rule:evenodd;fill:#EEA013;}
	.st74{fill-rule:evenodd;clip-rule:evenodd;fill:#DB9311;}
	.st75{fill-rule:evenodd;clip-rule:evenodd;fill:#3E60EB;}
	.st76{opacity:0.1;fill-rule:evenodd;clip-rule:evenodd;fill:#FFFFFF;enable-background:new    ;}
	.st77{fill:none;stroke:#261A5E;stroke-width:2;}
	.st78{fill-rule:evenodd;clip-rule:evenodd;fill:#FF5D5C;}
	.st79{fill-rule:evenodd;clip-rule:evenodd;fill:#D95150;}
	.st80{fill-rule:evenodd;clip-rule:evenodd;fill:#03CEFA;}
	.st81{fill-rule:evenodd;clip-rule:evenodd;fill:#03BCE4;}
	.st82{fill-rule:evenodd;clip-rule:evenodd;fill:#402E92;}
	.st83{fill-rule:evenodd;clip-rule:evenodd;fill:#DC678F;}
	.st84{fill-rule:evenodd;clip-rule:evenodd;fill:#98C3AF;}
	.st85{fill-rule:evenodd;clip-rule:evenodd;fill:#19D9EB;}
	.st86{fill-rule:evenodd;clip-rule:evenodd;fill:#13C3D3;}
	.st87{fill-rule:evenodd;clip-rule:evenodd;fill:#10A6B4;}
	.st88{fill-rule:evenodd;clip-rule:evenodd;fill:#FEDD00;}
	.st89{fill-rule:evenodd;clip-rule:evenodd;fill:#358BD7;}
	.st90{fill-rule:evenodd;clip-rule:evenodd;fill:#017F5D;}
	.st91{opacity:0.2;fill:none;stroke:#FFFFFF;stroke-width:2;enable-background:new    ;}
	.st92{fill-rule:evenodd;clip-rule:evenodd;fill:#00976F;}
	.st93{fill-rule:evenodd;clip-rule:evenodd;fill:#FF2200;}
	.st94{fill-rule:evenodd;clip-rule:evenodd;fill:#EE2304;}
	.st95{opacity:0.1;fill-rule:evenodd;clip-rule:evenodd;fill:#002C46;enable-background:new    ;}
	.st96{fill-rule:evenodd;clip-rule:evenodd;fill:#FF81C3;}
	.st97{opacity:0.3;fill-rule:evenodd;clip-rule:evenodd;fill:#BD461E;enable-background:new    ;}
	.st98{fill-rule:evenodd;clip-rule:evenodd;fill:#2F170B;}
	.st99{fill-rule:evenodd;clip-rule:evenodd;fill:#FFC09F;}
	.st100{opacity:0.2;fill-rule:evenodd;clip-rule:evenodd;fill:#6A3D25;enable-background:new    ;}
	.st101{fill-rule:evenodd;clip-rule:evenodd;fill:#6A3D25;}
	.st102{fill-rule:evenodd;clip-rule:evenodd;fill:#284BF2;}
	.st103{fill-rule:evenodd;clip-rule:evenodd;fill:#EB5D2D;}
	.st104{fill-rule:evenodd;clip-rule:evenodd;fill:#FFB34D;}
	.st105{opacity:0.2;fill-rule:evenodd;clip-rule:evenodd;fill:#2F170B;enable-background:new    ;}
	.st106{opacity:0.3;fill-rule:evenodd;clip-rule:evenodd;fill:#2F170B;enable-background:new    ;}
	.st107{fill:none;stroke:#2F170B;stroke-width:2;}
	.st108{fill-rule:evenodd;clip-rule:evenodd;fill:#FF5A59;}
	.st109{fill-rule:evenodd;clip-rule:evenodd;fill:#E94E4D;}
</style>
<g id="Group-6_11_" transform="translate(174.648613, 79.000000)">
	<g id="Group-5_14_">
		<g id="Group-3_11_">
			<g id="Group-4_24_" transform="translate(220.845327, 483.927689)">
				<path id="Path-17_20_" class="st1" d="M1275.2,1489.2c9.3-61.6,24.6-91,45.7-88.2c21.1,2.8,4.4,39.7-50.3,110.7
					c42.2-87.5,72.3-117,90.2-88.5c8.6,13.7-13.4,50.8-81,88.7"/>
				<path id="Path-16_20_" class="st33" d="M1046.7,1510.6l185.7-69c16.8,24.7,39.2,42.3,67.3,53c42.2,16,107.3,27.3,144.2,107.8
					l-254.3,25.8l-38.3-25.8v25.8l-104.7,11.8V1510.6z"/>
				<g id="Group-9_20_" transform="translate(48.154673, 20.072311)">
					<line id="Path-25_20_" class="st3" x1="1172.6" y1="1488.1" x2="1231.6" y2="1453.2"/>
					<line id="Path-25-Copy_20_" class="st3" x1="1198.4" y1="1497.9" x2="1257.3" y2="1463"/>
					<line id="Path-25-Copy-2_20_" class="st3" x1="1224.1" y1="1507.6" x2="1283" y2="1472.8"/>
				</g>
			</g>
			<g id="Group-8_9_" transform="translate(111.188631, 202.534890)">
				<path id="Path-11_8_" class="st34" d="M915.9,664.6l202.5,354.3c9.6,16.8,17.9,34.4,24.7,52.5l237.2,632.8l0,0l-252.1,123
					l-244.4-647.3l-124-515.3H915.9z"/>
				<path id="Path_117_" class="st35" d="M805,680.2l123,12.3c-32.8,84.3,8.9,197.8,125.2,340.4c104.6,128.3,103.1,322.9-4.5,583.8
					l-164.9-436.8l-93.9-390.1L805,680.2z"/>
				<line id="Path-15_9_" class="st36" x1="1227.6" y1="1777" x2="839" y2="664.6"/>
			</g>
			
				<g id="Group-4-Copy_6_" transform="translate(64.666095, 494.865270) rotate(46.000000) translate(-64.666095, -494.865270) translate(7.166095, 461.365270)">
				<path id="Path-17_19_" class="st1" d="M1567.6,534.7c9.3-61.6,24.6-91,45.7-88.2c21.1,2.8,4.4,39.7-50.3,110.7
					c42.2-87.5,72.3-117,90.2-88.5c8.6,13.7-13.4,50.8-81,88.7"/>
				<path id="Path-16_19_" class="st33" d="M1339.1,556.1l185.7-69c16.8,24.7,39.2,42.3,67.3,53c42.2,16,107.3,27.3,144.2,107.8
					L1482,673.7l-38.3-25.8l0,25.8l-104.7,11.8V556.1z"/>
				<line id="Path-24_5_" class="st3" x1="1322.4" y1="563.8" x2="1530.1" y2="491.1"/>
				<g id="Group-9_19_" transform="translate(53.083280, 22.472594)">
					<line id="Path-25_19_" class="st3" x1="1459.9" y1="539.9" x2="1518.8" y2="505.1"/>
					<line id="Path-25-Copy_19_" class="st3" x1="1485.6" y1="549.7" x2="1544.5" y2="514.8"/>
					<line id="Path-25-Copy-2_19_" class="st3" x1="1511.4" y1="559.5" x2="1570.3" y2="524.6"/>
				</g>
			</g>
			<g id="Group-7_11_" transform="translate(157.718389, 69.406542)">
				<path id="Path-5_14_" class="st0" d="M960.7,531.4l143.9,135.5l150.8-132.5c10.4-9.2,17.3-21.8,19.3-35.5l1.5-10.2
					c1.1-7.4,2.7-14.7,5-21.9l17.6-56.3c1.4-4.5,6.2-7,10.7-5.6c2.3,0.7,4.2,2.4,5.2,4.7c6,13.4,8,28.3,5.8,42.8l-3.8,25.1l0,0
					l107.2,37.1c-10.1,11.5-19.3,20-27.7,25.5s-21.7,11.6-39.9,18.5l-194.1,233.1c-14.3,17.2-34.7,28.1-57,30.4
					c-22.3,2.3-44.8-3.5-63.1-16.5L881.5,692.3l0,0l6.6-98L960.7,531.4z"/>
				
					<g id="Group-10_5_" transform="translate(141.627520, 37.134490) rotate(10.000000) translate(-141.627520, -37.134490) translate(119.627520, 4.134490)">
					<path id="Path-7_12_" class="st0" d="M1325.6,177.1l52.5-36.7c5.8-4,13.7-2.6,17.7,3.1c0.1,0.1,0.2,0.3,0.3,0.4
						c4.1,6.4,3.1,14.8-2.6,20l-52.3,48l0,0L1325.6,177.1z"/>
					<g id="Group-2_17_">
						<path id="Rectangle-Copy_13_" class="st4" d="M1269.1,109.4l73,13.1l0,0l10.5,2.6c3.2,0.8,5.5,3.7,5.5,7l0,197.9
							c0,4-3.2,7.2-7.2,7.2c-0.4,0-0.9,0-1.3-0.1l-90.1-16.3c-2.3-0.4-4.2-1.9-5.2-4l-6-12.5l0,0l12.3-188.2c0.3-4,3.7-7,7.7-6.7
							C1268.5,109.4,1268.8,109.4,1269.1,109.4z"/>
						<path id="Rectangle_36_" class="st37" d="M1255.8,105l87.2,15.8c3.4,0.6,5.9,3.6,5.9,7.1l0,192.9c0,4-3.2,7.2-7.2,7.2
							c-0.4,0-0.9,0-1.3-0.1l-87.2-15.8c-3.4-0.6-5.9-3.6-5.9-7.1l0-192.9c0-4,3.2-7.2,7.2-7.2
							C1254.9,104.8,1255.3,104.9,1255.8,105z"/>
						
							<ellipse id="Oval_39_" transform="matrix(2.310677e-06 1 -1 2.310677e-06 1599.8191 -982.4396)" class="st4" cx="1291.1" cy="308.7" rx="6.9" ry="6.9"/>
						<path id="Rectangle-Copy-2_14_" class="st38" d="M1260.6,120.4c-1.3,0-2.4,0.6-3.3,1.4c-0.9,0.9-1.4,2.1-1.4,3.5v157.4
							c0,1.2,0.4,2.2,1.1,3.1c0.7,0.8,1.7,1.5,2.8,1.7l75.1,15.8c1.3,0,2.4-0.6,3.3-1.4c0.9-0.9,1.4-2.1,1.4-3.5V141
							c0-1.2-0.4-2.2-1.1-3.1c-0.7-0.8-1.7-1.5-2.8-1.7L1260.6,120.4z"/>
						<polygon id="Triangle_2_" class="st39" points="1293.7,188.1 1316.8,204.5 1294.5,216.4 						"/>
						<line id="Path-6_14_" class="st40" x1="1286.6" y1="117.2" x2="1309.9" y2="121.8"/>
					</g>
					<path id="Path-8_13_" class="st0" d="M1364.4,190.5l-35.6,30c-6.1,5.2-7.5,14.1-3.2,20.9c3.9,6.2,12.2,8,18.4,4.1
						c0.2-0.1,0.4-0.3,0.6-0.4l14.3-10.2c13.7-9.8,16.8-28.8,7-42.4c-0.2-0.3-0.5-0.6-0.7-0.9L1364.4,190.5L1364.4,190.5z"/>
					<path id="Path-9_12_" class="st0" d="M1377.9,236.6c3.8,9,0.7,19.5-7.5,24.8l-20.9,13.6c-5.8,3.8-13.5,2.2-17.3-3.6
						c-0.6-0.9-1-1.8-1.4-2.8c-3.1-9.1,0.2-19.1,8-24.6l18.6-13.2c6.2-4.4,14.7-2.9,19.1,3.3C1377,234.9,1377.5,235.7,1377.9,236.6z
						"/>
					<path id="Path-9-Copy_3_" class="st0" d="M1382.7,268.2c3.7,6.9,1,15.5-5.9,19.2c0,0,0,0,0,0l-24.2,12.7
						c-6,3.2-13.4,0.9-16.5-5.1c-0.2-0.3-0.3-0.7-0.5-1c-3-7.1-0.2-15.2,6.5-19l21.7-12.4c6.6-3.8,15-1.5,18.8,5.1
						C1382.5,267.9,1382.6,268.1,1382.7,268.2z"/>
					<line id="Path-21_5_" class="st11" x1="1333.3" y1="248.7" x2="1368.3" y2="227.7"/>
					<line id="Path-22_5_" class="st11" x1="1338.1" y1="277.4" x2="1373.1" y2="260.4"/>
					<line id="Path-23_5_" class="st11" x1="1350.8" y1="202.1" x2="1391.4" y2="165.5"/>
				</g>
				<path id="Path_116_" class="st41" d="M1252.2,537.2l3.2-2.8c10.4-9.2,17.3-21.8,19.3-35.5l1-7.1c1.4-9.5,3.5-18.8,6.4-27.9
					l16.7-53.3c1.4-4.5,6.2-7,10.7-5.6c2.3,0.7,4.2,2.4,5.2,4.7c6,13.4,8,28.3,5.8,42.8l-3.8,25.1c19.4,12.7,27.5,36.1,24.4,70"/>
				<line id="Path-32_4_" class="st11" x1="1104.9" y1="675.6" x2="1104.9" y2="706.6"/>
			</g>
			<path id="Path-10_10_" class="st34" d="M730.9,846.3c-71.7,74.9-76.8,170.4-15.2,286.8l124.1,227.4l-277.9,412.6l224.5,111.5
				l266.5-366.2c31.4-43.1,51.1-93.5,57.4-146.4c6.3-53-0.8-106.6-20.6-156.1l-68.2-170.1c-21.7-54.2-15-115.6,17.8-163.8l0,0l0,0
				L730.9,846.3z"/>
			<path id="Path-14_9_" class="st36" d="M645.4,1817.1l279.3-383.9c16.5-22.7,25.5-50.1,25.5-78.3c0-28.5-6.6-56.5-19.2-82
				l-73.1-147.4c-40.9-82.6-47.1-178.1-17-265.2l0,0l0,0"/>
			<line id="Path-13_9_" class="st3" x1="840.9" y1="996.5" x2="891.3" y2="963.6"/>
			<path id="Path-3_12_" class="st39" d="M949.7,468L907.4,452c-33.7-12.7-70.5-14.8-105.5-5.9c-34.8,8.8-65.9,28.6-88.6,56.5
				L585,660.2l0,0l170.6,62.7l-44.3,119.6v49.9c59.7,15.3,119.7,23,180,23s109.2-9.2,146.8-27.6l15.2-165l103.6-116l-115-87.9
				C1013.9,497.6,982.8,480.4,949.7,468z"/>
			<line id="Path-27_5_" class="st3" x1="1062.2" y1="635.6" x2="1054" y2="716.4"/>
			<line id="Path-34_2_" class="st3" x1="1061.6" y1="688.1" x2="1130" y2="607.3"/>
			<path id="Path-28_10_" class="st3" d="M996.9,493.7c-5.7,42.2-35.5,50.8-58.6,34.3c-19-12.1-40.2-43.4-41.6-76.4"/>
			<path id="Path_115_" class="st42" d="M818.5,627.8l-6.8,86.9c-5.6,71.7,48,134.3,119.7,139.9c44.2,3.5,87.1-15.8,113.8-51
				l0.8-1.1l-7.9,85.4c-36.9,18.1-84.8,27.3-143.5,27.6l-3.3,0c-58.6,0-116.9-7.2-174.9-21.7l-5.1-1.3v-49.9l44.3-119.6l-1.7-0.6
				L818.5,627.8z"/>
			<path id="Path-4_13_" class="st0" d="M602.7,666.7l-69.2,104c-11.8,17.7-16.5,39.1-13.4,60.1c3.1,20.8,14.7,39.5,31.9,51.6
				l178.4,125.2l0,0c1.8,13.2,8.2,28.3,19.1,45.2l94.7-58.1l28,8.3c9.8,2.9,20.2,2.2,29.5-1.9c4.2-1.9,6.1-6.8,4.2-10.9
				c-0.7-1.5-1.8-2.8-3.3-3.7l-40.6-24.8c-4.4-2.7-9.1-4.8-14.1-6.3l-33.3-10.2c-10.7-3.3-20.4-9.5-27.9-17.8l-97.5-109.2l0,0
				l66.1-95.3L602.7,666.7z"/>
			
				<g id="Group_18_" transform="translate(213.146767, 158.438479) rotate(-11.000000) translate(-213.146767, -158.438479) translate(136.646767, 11.938479)">
				<path id="Path-37_2_" class="st11" d="M787,739.4c1.2-63.2,15.2-123.7,42.1-181.7"/>
				<path id="Path-2_13_" class="st4" d="M870.9,479.1c25.2,9.2,44.6,5.8,58-10.3c53.1-4.1,75.6-25,67.4-62.6
					c-12.2-56.4-93.1-22.1-130.3-40.3c-37.3-18.2-60.8-19.7-81.7,0c-24.7-2.8-38.4,7.5-41.3,31.1s0.2,55.5,9,95.8L870.9,479.1z"/>
				<path id="Path_114_" class="st43" d="M786.1,364.3l0.7-0.6l1.6,1.2c7,5.3,15.6,10.3,29.1,11.7l1.6,0.1
					c36.3,3,68,34.2,126.7,48.6l2.3,0.5c34,7.7,45.9-6.5,35.5-42.3c6.1,5.1,10.5,12.4,12.7,22.6c8.2,37.6-14.3,58.5-67.4,62.6
					c-13.2,15.8-32.1,19.4-56.6,10.8l-1.4-0.5L752,492.8c-8.8-40.3-11.8-72.2-9-95.8s16.6-33.9,41.3-31.1
					C784.9,365.4,785.5,364.8,786.1,364.3z"/>
				<path id="Path_113_" class="st0" d="M912.4,464.7l-34.2,84.4c-5.3,13.2-15.4,24-28.2,30.2c-12.6,6.1-27.3,6.2-39.9,0.2
					l-12.1-5.8l0,0l-29.4,59.5c-6,12.2-20.8,17.1-32.9,11.1c-0.2-0.1-0.4-0.2-0.6-0.3c-14.1-7.4-23.8-21.1-26.3-36.8l-6-37.6l0,0
					l58.3-107c-3.2-20-0.3-32.9,8.9-38.9c13.7-8.9,33.2-2.1,30.5,19.6l-3.7,11c-0.8,2.4,0.3,5.1,2.5,6.2c2.3,1.2,5,0.5,6.5-1.6
					l17.7-26l0,0c9-0.8,15.8-1.7,20.2-2.7c4.5-1.1,10.7-3.2,18.7-6.5l43.4,22.8C912.3,449.9,915.2,457.8,912.4,464.7z"/>
				<path id="Path_112_" class="st44" d="M761.8,534c7.5,18.7,19.6,31.9,36.1,39.8l-29.4,59.4c-0.3,0.7-0.7,1.3-1,1.9
					c-6.3-13.4-10.9-26.4-13.6-39C749.8,577.1,752.4,556.4,761.8,534z"/>
				<path id="Path-18_9_" class="st11" d="M862.8,489.9l-0.9,34.8c-0.1,4-2.6,7.5-6.3,9c-3.7,1.5-8,0.7-10.9-2l-9.3-8.7l0,0"/>
				
					<ellipse id="Oval_38_" transform="matrix(-1 2.499226e-06 -2.499226e-06 -1 1676.3188 961.7828)" class="st4" cx="838.2" cy="480.9" rx="6.9" ry="6.9"/>
				<path id="Rectangle_35_" class="st4" d="M832.3,446.4l28.2,5.5c2.5,0.5,4.1,2.9,3.6,5.3c0,0,0,0.1,0,0.1l0,0.1
					c-0.5,2.5-2.9,4.1-5.4,3.6l-28.2-5.5c-2.5-0.5-4.1-2.9-3.6-5.3c0,0,0-0.1,0-0.1l0-0.1C827.5,447.5,829.9,445.9,832.3,446.4z"/>
				<path id="Rectangle-Copy-3_7_" class="st4" d="M905.1,487.8L886,471.6c-1.8-1.6-2.2-4.3-0.7-6.2l0.2-0.3c1.4-1.9,4.1-2.3,6-0.9
					c0.1,0.1,0.2,0.1,0.3,0.2l19.1,16.3c1.8,1.6,2.2,4.3,0.7,6.2l-0.2,0.3c-1.4,1.9-4.1,2.3-6,0.9
					C905.3,488,905.2,487.9,905.1,487.8z"/>
				
					<ellipse id="Oval-Copy_10_" transform="matrix(-1 2.499106e-06 -2.499106e-06 -1 1761.7147 1006.5574)" class="st4" cx="880.9" cy="503.3" rx="6.9" ry="6.9"/>
				<path id="Path-20_5_" class="st13" d="M821.6,537.3l30.3,13.9c-7.9,7.9-15.5,10.1-22.8,6.6C821.8,554.3,819.3,547.5,821.6,537.3
					z"/>
				<path id="Path-29_4_" class="st11" d="M783.4,424.6c8.8,4.1,12.4,10.5,10.7,19.1c-2.5,12.9-11,14.9-17.3,14.8"/>
				<line id="Path-30_4_" class="st11" x1="790.6" y1="451.7" x2="776.8" y2="440.3"/>
				<circle id="Oval_37_" class="st45" cx="778.9" cy="441.2" r="7.2"/>
				<path id="Path-36_2_" class="st11" d="M777.4,465.3c-15.8,59.7-15.7,138.9,0.3,237.5c23.9,147.9,184.7,176.3,74.3,400.6
					s163.3,425.9,308.3,218.8s5.6-237.9,94-483.6"/>
				<line id="Path-35_2_" class="st30" x1="778.2" y1="444.9" x2="777.2" y2="466.4"/>
			</g>
			<line id="Path-12_11_" class="st3" x1="728.5" y1="1067.2" x2="840.9" y2="996.5"/>
			<line id="Path-26_5_" class="st3" x1="753.9" y1="722.3" x2="818.5" y2="627.8"/>
			<line id="Path-31_4_" class="st11" x1="629" y1="809.4" x2="673.8" y2="815.5"/>
			<line id="Path-33_4_" class="st3" x1="602.6" y1="651.8" x2="742.1" y2="703.3"/>
		</g>
	</g>
</g>
</svg>
